<?xml version="1.0" encoding="utf-8"?>
<!-- Generator: Adobe Illustrator 20.1.0, SVG Export Plug-In . SVG Version: 6.00 Build 0)  -->
<svg version="1.1" id="Layer_1" xmlns="http://www.w3.org/2000/svg" xmlns:xlink="http://www.w3.org/1999/xlink" x="0px" y="0px"
	 viewBox="0 0 841.9 595.3" style="enable-background:new 0 0 841.9 595.3;" xml:space="preserve">
<style type="text/css">
	.st0{fill:none;stroke:#FFDE7F;stroke-width:2.6982;stroke-miterlimit:10;}
	.st1{fill:#99A6CA;}
	.st2{fill:#262261;}
	.st3{fill:#333366;}
	.st4{fill:#70BEDB;}
	.st5{fill:#3A64A5;}
	.st6{fill:#81C9E7;}
	.st7{fill:#FFFFFF;}
	.st8{fill:#1C3664;}
	.st9{fill:#231F20;}
	.st10{fill:#333333;}
	.st11{fill:#6D6E70;}
</style>
<g>
	<path class="st0" d="M591,346.4"/>
	<path class="st1" d="M487.7,412.9c0,0-6.6,40.7,14.3,62.3c29.9,30.9,121.9,44.5,121.9,44.5s3.4,19.3-10.5,34.1
		c-15,15.9-63.2,14.6-79.3,10.5c-43.4-11.1-87.1-35-107.8-66.4c-16.1-24.4-13.5-84.9-13.5-84.9s-0.8,127.4-2.5,137.5
		c-1.4,8.6-4,19.2-19.1,29.5c-13.6,9.3-36.1,6.1-47.8-0.1c-13.6-7.2-19.1-23.2-20.5-33.2c-1-7.6,1.4-134.3,1.4-134.3
		s-4.2,33.2-23,58.6c-13.8,18.6-22.6,26.1-45.3,35.9c-22.2,9.6-57.7,5.6-78.5-10.2c-17.8-13.6-35.2-36.5-35.2-36.5
		s26.8,8.1,63.6-15.9c50.4-32.7,54.6-79.6,56.8-97.7c2.3-18.2-3.1-81.7-3.4-104.5c-0.4-28.9,5.7-93.2,58-127.3
		c52.3-34.1,104-29.6,104-29.6s52.6-4.5,104.9,29.6c52.3,34.1,55.4,101.9,56.2,126.9c0.7,25-1.9,57.9-1.7,81.4
		c0.1,23.5,8,55,34.1,86.7c41,49.7,88,57.1,88,57.1c-19.3,31.1-47.9,36.2-58,36.2c-10.1,0-47.1-2.5-72.3-28.6
		c-25.2-26.1-34.1-69.4-34.1-69.4s7.3,26,9.7,42.5c1.7,11.5,3.6,22.9-0.3,53.6c0,0-37.9-10.9-54.4-38.3
		C482,443.5,487.7,412.9,487.7,412.9"/>
	<path class="st2" d="M369.3,589.3c-9.6,0-20.2-2.4-27.5-6.3c-13.8-7.3-20.6-23.3-22.3-35.9c-0.8-5.5,0.2-66.2,0.8-104.6
		c-3.6,9.8-8.7,20.7-16.1,30.6c-13.6,18.3-22.7,26.7-46.7,37c-8.3,3.6-18.4,5.4-29.4,5.4c-19.7,0-39.4-6-52.6-16.1
		c-18-13.7-35.1-36.3-35.9-37.2l-6.6-8.7l10.4,3.1c0,0,4,1.2,10.9,1.2c11,0,28.7-2.9,49.8-16.6c47.4-30.8,52.7-74.6,55-93.4l0.2-1.8
		c1.4-11.4-0.4-42.9-1.8-68.2c-0.8-14.2-1.6-27.7-1.7-35.9c-0.4-27.3,4.7-94.5,59.6-130.3c50.9-33.2,101.6-30.5,106-30.1
		c4.5-0.3,55.9-3.1,106.8,30.1c55,35.8,57.1,106.5,57.8,129.8c0.4,14.2-0.2,30.8-0.8,46.8c-0.5,12.6-0.9,24.5-0.9,34.7
		c0.1,16.6,4.5,49.6,33.3,84.5c39.6,48,85.4,55.8,85.9,55.8l5.3,0.8l-2.8,4.5c-22.9,36.8-57.2,37.8-61,37.8
		c-7.7,0-47.5-1.4-74.9-29.7c-7.1-7.3-12.9-15.9-17.6-24.5c1.3,9.9,2.2,21.8-0.7,46.2c34.4,12,72.3,17.7,72.7,17.8l2.5,0.4l0.4,2.5
		c0.2,0.9,3.5,21.3-11.4,37.1c-11.7,12.4-38.6,14.3-53.6,14.3c-11.2,0-22.3-1.1-29.1-2.8c-48.4-12.4-90.5-38.4-109.9-67.9
		c-3.2-4.8-5.7-10.9-7.7-17.7c-0.4,32.9-1.1,63.9-1.9,68.9c-1.6,9.7-4.7,21-20.6,31.8C387.1,587.1,378.8,589.3,369.3,589.3z
		 M320.9,411.9l7,0.5c-1,50.8-2.2,128.4-1.5,133.7c1.5,10.8,7.2,24.5,18.6,30.6c6.4,3.4,15.7,5.5,24.2,5.5c8,0,14.9-1.8,19.9-5.2
		c13.6-9.3,16.2-18.5,17.6-27.2c0.9-5.3,1.8-50.8,2.4-121.7c-0.2-9.1,0.1-15.1,0.1-15.4l7.1,0.2l-0.1,15.3
		c0.3,18.3,2.4,51.7,13,67.7c18.5,28,59,52.9,105.8,64.9c6.2,1.6,16.7,2.6,27.3,2.6c23.3,0,41.4-4.5,48.5-12.1
		c9.7-10.3,10.2-23.2,9.8-28.6c-9.3-1.5-40.5-7.1-69.8-17.2l0,0l-4-1.3c-0.5-0.1-11.2-3.3-23.9-10.3c-10-5.1-18-10.7-23.6-16.4
		c-3.6-3.8-6.7-8.3-9.2-13.5c-11.8-19.8-6.3-50.6-6.1-51.9l7,1.2c0,0.3-4.2,27.1,5.5,47.6c6.1,10,16.1,19.1,29.8,26.8
		c5.4,2.7,11.6,5.5,18.5,8.1c3-26.1,1.4-36.8-0.1-47.2l-0.1-0.8c-1.3-9.2-4.2-21.4-6.4-30.1c-2.2-7.2-3.2-12-3.2-12.2l6.9-1.7
		c0,0,1.4,5,3.2,12.1c4,13.4,13.4,38.6,30,55.8c25.4,26.2,62.6,27.5,69.8,27.5c3.3,0,31.5-0.9,52.2-30.3
		c-13.6-3.4-51.1-16.2-85-57.2c-30.2-36.6-34.9-71.4-34.9-89c-0.1-10.4,0.4-22.3,0.9-35c0.6-15.9,1.3-32.4,0.8-46.4
		c-0.7-22.3-2.7-90.2-54.6-124.1c-40.4-26.3-80.9-29.2-96.4-29.2c-3.9,0-6.2,0.2-6.2,0.2l-0.3,0l-0.3,0c0,0-2.2-0.2-6.1-0.2
		c-15.3,0-55.3,2.8-95.7,29.2c-52,33.9-56.7,98.2-56.4,124.3c0.1,8,0.9,21.4,1.7,35.6c1.5,26.9,3.3,57.4,1.7,69.5l-0.2,1.8
		c-2.4,19.7-8.1,65.9-58.2,98.5c-25,16.2-45.7,18.3-57.2,17.7c6.5,7.7,17.7,20.4,29,29c12,9.2,30.1,14.6,48.3,14.6
		c10,0,19.2-1.7,26.6-4.9c22.7-9.8,30.9-17.3,43.9-34.7C316.6,444.5,320.9,412.2,320.9,411.9z"/>
	<g>
		<path class="st1" d="M523.9,561.4c0,0-3.9,8.1-22.4,13.3c-18.5,5.2-47.3,0.6-47.3,0.6s7-6.5,10.2-18.9c3.2-12.2,3-11.5,3.8-19.6
			c0,0,11,6.9,25.1,13.1C513.3,558.6,523.9,561.4,523.9,561.4z"/>
		<path class="st3" d="M479.3,580.7c-13.5,0-25.2-1.9-25.7-2l-7.2-1.2l5.3-4.9c0.1,0,6.3-6,9.2-17.2c2.9-11.1,2.9-11.1,3.5-17.5
			l0.7-7.2l4.9,3c0.1,0.1,10.9,6.8,24.6,12.8c19.5,8.5,30,11.4,30.1,11.4l4.1,1.1L527,563c-0.5,1-5.2,9.6-24.7,15.1
			C496.2,579.9,488.5,580.7,479.3,580.7z M460.9,572.6c4.6,0.5,11.3,1.1,18.4,1.1c8.5,0,15.7-0.8,21.2-2.3c9-2.6,14.2-5.8,17.1-8.2
			c-5.1-1.7-13.7-4.8-25.7-10.1c-8.7-3.8-16.2-7.8-20.8-10.4c-0.4,3.6-1,5.9-3.3,14.6C466,564,463.2,569.1,460.9,572.6z"/>
	</g>
	<g>
		<path class="st3" d="M344.1,238.9c-36.3,0-45.8-23.6-46.2-24.6l6.6-2.6c0.3,0.8,8.3,20.1,39.6,20.1c30.9,0,43.7-19.8,44.2-20.6
			l6,3.7C393.7,215.8,379.1,238.9,344.1,238.9z"/>
		<path class="st3" d="M496.8,238.9c-36.3,0-45.8-23.6-46.2-24.6l6.6-2.5l-3.3,1.3l3.3-1.3c0.3,0.8,8.3,20.1,39.6,20.1
			c31.1,0,44.1-20.4,44.2-20.6l6,3.7C546.4,215.8,531.8,238.9,496.8,238.9z"/>
	</g>
	<g>
		<path class="st4" d="M502.6,553.9c-2.4,0.7-6.3,0.8-12.2,0.8c-16.5,0-24.2-5.4-24.2-5.4c0.9-3.6,1.5-6.2,1.9-12.5
			c0,0,9.7,6.4,23.9,12.5L502.6,553.9z"/>
		<path class="st5" d="M490.4,556.4c-16.9,0-24.9-5.5-25.2-5.7l-1-0.7l0.3-1.2c0.9-3.4,1.5-6,1.9-12.1l0.2-3l2.5,1.7
			c0.1,0.1,9.8,6.4,23.6,12.4l15.2,6.5l-4.8,1.3C500.5,556.3,497,556.4,490.4,556.4z M468.3,548.4c2.5,1.3,9.7,4.5,22.1,4.5
			c1.9,0,3.7,0,5.3,0l-4.4-1.9c-10.1-4.4-17.9-8.8-21.6-11.1C469.4,543.6,468.9,546,468.3,548.4z"/>
	</g>
	<path class="st6" d="M487.7,412.9c0,0-6.6,40.7,14.3,62.3c19.9,20.6,67.3,33.5,96.8,39.8c0,0-0.8,7.8-9.7,26.4
		c-8.9,18.7-23,32-23,32l-32-9.2c-43.4-11.1-87.1-35-107.8-66.4c-16.1-24.4-13.5-84.9-13.5-84.9s-0.7,110.4-2.2,133.8
		c0,0-7.6,14.1-45.3,12.6c-39.2-1.6-42.6-18.6-42.6-18.6c-0.3-26.6,1.7-128.3,1.7-128.3s-0.1,21.9-20.9,56.5
		c-23.8,39.6-49.1,55.9-49.1,55.9s-26.8-7.7-52.2-27.9c-25.4-20.2-29-37.9-29-37.9c9.4-2.4,20.6-6.8,32.9-14.8
		c50.4-32.7,54.6-79.6,56.8-97.7c0.5-4,0.6-10.3,0.3-17.9c0,0,55.9,22.1,156.3,20.2c119.7-2.3,161.3-25.8,161.3-25.8
		c0.1,23.5,8,55,34.1,86.7c19.2,23.3,39.8,37.3,56.2,45.6c0,0-0.9,12.3-15.2,25.8c-14.3,13.5-52.5,20.9-52.5,20.9
		s-6.8-3.3-30.8-27.6c-24-24.3-34.1-69.4-34.1-69.4s7.3,26,9.7,42.5c1.7,11.5,3.6,22.9-0.3,53.6c0,0-37.9-10.9-54.4-38.3
		C482,443.5,487.7,412.9,487.7,412.9"/>
	<path class="st5" d="M566.6,575.4l-32.9-9.5c-47.9-12.3-89.6-38-108.8-67.1c-5.3-8.1-8.7-20-10.7-32.4c-0.4,31.5-0.9,68.1-1.7,80.4
		l-0.2,0.7c-0.3,0.6-8.5,15-46.9,13.5c-40.1-1.6-44.1-19.3-44.3-20c-0.3-19.4,0.7-77.7,1.2-108.8c-3,9.6-8.1,22.4-17.2,37.5
		c-23.7,39.5-48.6,55.8-49.6,56.5l-0.7,0.4l-0.8-0.2c-0.3-0.1-27.5-8.1-52.9-28.3c-25.6-20.4-29.5-38.2-29.6-38.9l-0.3-1.7l1.6-0.4
		c10.8-2.7,21.6-7.6,32.3-14.5c48.1-31.2,53.5-75.7,55.8-94.6l0.2-1.8c0.5-3.7,0.6-9.6,0.3-17.6l-0.1-2.7l2.5,1
		c0.5,0.2,56.8,22,155.6,20.1c117.9-2.3,160-25.3,160.4-25.6l2.6-1.5l0,3c0.1,16.8,4.6,50.3,33.7,85.6c16,19.4,34.7,34.6,55.6,45.1
		l1.1,0.5l-0.1,1.2c0,0.5-1.2,13.2-15.8,26.9c-14.5,13.6-51.8,21-53.3,21.3l-0.6,0.1l-0.5-0.3c-0.3-0.1-7.4-3.7-31.3-27.9
		c-9.6-9.7-17-22.7-22.5-34.9c0.4,2.2,0.8,4.4,1.1,6.4l0.1,0.8c1.6,11.1,3.3,22.7-0.2,51.7c17.8,6.3,36.6,10.9,49.3,13.6l1.6,0.3
		l-0.2,1.6c0,0.3-1,8.3-9.9,27c-8.9,18.7-22.8,32-23.4,32.5L566.6,575.4z M411.1,412.8l3.5,0.1l-0.1,15.3
		c0.3,18.6,2.4,52.3,13.3,68.7c18.7,28.4,59.7,53.5,106.8,65.6l31,8.9c3-3,14.4-15,21.9-30.8c6.4-13.5,8.6-21.2,9.2-24.3
		c-12.6-2.8-30.3-7.1-47.3-13.1v0l-2-0.5c-0.4-0.1-11-3.2-23.5-10.2c-9.9-5.1-17.7-10.5-23.2-16.1c-3.5-3.6-6.5-8-8.9-13
		c-11.6-19.4-6.2-49.5-5.9-50.8l3.5,0.6c0,0.3-4.3,27.6,5.7,48.7c6.3,10.5,16.6,19.8,30.5,27.6c6,3.1,13,6.1,20.8,9
		c3.4-27.9,1.7-39.1,0.2-49.9l-0.1-0.8c-1.5-10.1-4.8-23.7-7.3-33.4c-1.6-5.4-2.4-8.8-2.4-9l3.4-0.9c0,0,1,3.6,2.4,8.9
		c4.4,14.9,14.3,42.5,31.2,59.7c20.1,20.4,27.9,25.8,29.8,27c5-1,38.2-8.3,50.9-20.3c11.1-10.5,13.9-20.2,14.5-23.5
		c-20.9-10.8-39.6-26.1-55.6-45.5c-28.3-34.3-33.9-67-34.5-85c-10.7,5-55.6,22.7-159.5,24.7c-87.9,1.6-142.5-15.3-154.5-19.4
		c0.2,6.9,0,12.1-0.4,15.6l-0.2,1.8c-2.4,19.5-8,65.1-57.4,97.2c-10.4,6.8-21.1,11.7-31.6,14.5c1.6,4.7,7.7,19.2,27.9,35.3
		c22.4,17.9,46.3,25.9,50.8,27.4c4.1-2.9,26.7-19.7,47.8-54.9c19.5-32.4,20.6-53.3,20.6-55.5l1.8-0.1l1.2,0l0.6,0c0,0,0,0,0,0l0,0
		c0,0,0,0,0,0c-0.1,4.9-2,102.4-1.7,128.3c0,0,0,0,0,0c0,0,4.1,15.4,40.9,16.9c32.8,1.4,42.1-9.5,43.5-11.4c1.1-18.8,1.8-88.7,2-118
		C410.8,419.1,411.1,412.9,411.1,412.8z"/>
	<g>
		<path class="st7" d="M179.6,469.2c-0.6,0-1.2,0-1.8-0.1l0.2-3.5c12.2,0.8,31.7-8,40.3-14.7c15.2-11.8,26.8-27,33.9-37.8
			c6.4-9.8,13-23.5,15.9-33.3c2.6-8.7,5.3-18.7,5-27.1l3.5-0.1c0.3,9-2.5,19.3-5.2,28.3c-3,10.1-9.7,24.2-16.3,34.2
			c-7.2,11-19.1,26.6-34.7,38.6C212.1,460.3,193.1,469.2,179.6,469.2z"/>
		<path class="st7" d="M188.7,484.1l0-0.2c-0.6,0-0.9-0.1-1-0.2l-1.1-0.8l0.9-2.5l1.5,0.1c2,0.1,21.8-0.2,42.1-15.9
			c16.6-12.8,29.2-29.4,36.9-41.1c7-10.7,14.1-25.6,17.3-36.2c2.7-9.1,5.8-20.8,5.5-30l3.5-0.1c0.3,9.7-2.7,21.2-5.6,31.2
			c-3.2,11-10.5,26.2-17.7,37.2c-7.8,11.9-20.7,28.9-37.6,42c-20,15.5-39.4,16.8-44.4,16.5l0.1-1.6l-0.1,1.6c-0.1,0-0.1,0-0.2,0
			L188.7,484.1z"/>
		
			<rect x="241.9" y="458.1" transform="matrix(5.949552e-03 -1 1 5.949552e-03 -126.4699 792.5048)" class="st7" width="187" height="3.5"/>
		<rect x="352.8" y="367" class="st7" width="3.5" height="191.7"/>
		<rect x="374.6" y="368.8" class="st7" width="3.5" height="190.5"/>
		<rect x="396.2" y="369" class="st7" width="3.5" height="186.4"/>
		<path class="st7" d="M206.5,501.5l-0.9-3.4c0.4-0.1,45-11.7,72.9-50.9c26.7-37.5,27.8-86.2,27.8-86.7l3.5,0.1
			c0,0.5-1.1,50.3-28.4,88.7C252.8,489.5,207,501.4,206.5,501.5z"/>
		<path class="st7" d="M231.4,516.5l-1.6-3.2c0.5-0.2,46.7-23.3,67.3-55.9c28.5-45.1,26-94.2,26-94.6l3.5-0.2
			c0,0.5,2.5,50.7-26.5,96.7C279.1,492.8,233.4,515.6,231.4,516.5z"/>
		<path class="st7" d="M577.7,561c-3.6-1.1-87.7-27.1-112.8-48.4c-22.2-18.9-35-44-36.2-70.7c-1.1-25,0-72.4,0-72.9l3.5,0.1
			c0,0.5-1.1,47.8,0,72.6c1.1,25.8,13.6,50,35,68.2c24.6,20.9,110.7,47.5,111.5,47.7L577.7,561z"/>
		<path class="st7" d="M587.6,544.1c-3.3-0.9-80.3-22.9-106.6-42.8c-20.9-15.9-32.3-38.1-32.1-62.4c0.2-25,2.9-69.7,2.9-70.2
			l3.5,0.2c0,0.4-2.7,45.1-2.9,70c-0.1,16.4,5.1,40,30.7,59.5c25.7,19.6,104.6,42,105.4,42.2L587.6,544.1z"/>
		<path class="st7" d="M594.8,528.8c-2.8-0.7-69.4-18.5-98.9-40.1c-21.2-15.6-22.8-32.5-24.6-52.2l-0.1-0.7
			c-2.3-25.1,3.5-70,3.6-70.5l3.5,0.5c-0.1,0.4-5.8,45-3.6,69.7l0.1,0.7c1.8,19.6,3.2,35,23.1,49.6c29,21.3,97,39.4,97.7,39.6
			L594.8,528.8z"/>
		<path class="st7" d="M538,496.6l-3.5-0.6c3.8-23.1,1.3-51.1-2.4-69.6l-0.2-1c-3.1-15.3-3.1-15.6-16.8-62.2l3.4-1
			c13.7,46.8,13.8,47.1,16.9,62.5l0.2,1C539.4,444.6,542,473.1,538,496.6z"/>
		<path class="st7" d="M523.2,489.3l-3.5-0.6c3.8-22.8,0.1-52.7-4.6-73.1c-5.6-24.1-12.6-51.9-12.7-52.2l3.4-0.9
			c0.1,0.3,7.1,28.2,12.7,52.3C523.4,435.6,527.1,466,523.2,489.3z"/>
		<path class="st7" d="M507.6,477.5l-3.5,0c0-0.2,0.1-19.6-2.4-43c-2.1-19.7-3.4-25-10-50.3c-1.3-5-2.8-10.7-4.5-17.4l3.4-0.9
			c1.7,6.7,3.2,12.4,4.5,17.4c6.6,25.6,8,30.9,10.1,50.9C507.7,457.7,507.6,477.3,507.6,477.5z"/>
		<path class="st7" d="M618.8,499.8c-0.7-0.4-17.3-9.4-28.1-19.2c-9.2-8.3-26.3-26.4-38.5-53.8c-11.7-26.3-19.3-68.8-19.3-69.2
			l3.5-0.6c0.1,0.4,7.6,42.5,19.1,68.4c11.9,26.8,28.7,44.5,37.7,52.6c10.5,9.5,27.2,18.6,27.4,18.7L618.8,499.8z"/>
		<path class="st7" d="M637.5,493c-1-0.6-24.4-14.2-37.5-27.6c-1.6-1.6-3.2-3.1-5-4.7c-7.7-6.9-17.2-15.5-30.2-41.2
			c-15.9-31.5-19-64.8-19-65.1l3.5-0.3c0,0.3,3,33,18.7,63.8c12.7,25.1,22,33.5,29.5,40.2c1.8,1.7,3.5,3.2,5.2,4.8
			c12.7,13,36.5,26.8,36.7,27L637.5,493z"/>
		<path class="st7" d="M655.1,482.6c-0.2-0.1-20.9-9.9-37.4-21.9c-17.2-12.4-32.6-30.7-43.5-51.5c-9.4-18-17-56.1-17.3-57.7l3.5-0.7
			c0.1,0.4,7.8,39.2,17,56.7c10.6,20.3,25.7,38.1,42.5,50.3c16.3,11.8,36.7,21.5,36.9,21.6L655.1,482.6z"/>
		<path class="st7" d="M665.2,467.9c-0.3-0.1-27.2-12-46.6-28.3c-14.6-12.3-30.1-37.5-30.7-38.6c-13.9-23.3-16.8-53.1-16.9-54.4
			l3.5-0.3c0,0.3,3,30.3,16.4,52.9c0.2,0.2,15.8,25.8,30,37.7c19.1,16,45.5,27.7,45.8,27.8L665.2,467.9z"/>
	</g>
	<g>
		<path class="st8" d="M490.4,558.2c-17.5,0-25.9-5.8-26.2-6l-2-1.4l0.6-2.4c0.9-3.3,1.4-5.8,1.8-11.8l0.4-6.1l5.1,3.3
			c0.1,0.1,9.7,6.3,23.4,12.2l19.8,8.5l-9.7,2.7C500.8,558,497.1,558.2,490.4,558.2z M470.3,547.5c2.8,1.2,8.3,3.2,16.9,3.6
			c-6.8-3.1-12.3-6.1-16-8.3C470.9,544.6,470.7,546,470.3,547.5z"/>
		<path class="st8" d="M567.1,577.4l-33.9-9.8c-48.3-12.4-90.4-38.4-109.8-67.8c-3.2-4.8-5.7-10.9-7.7-17.7
			c-0.4,27.2-0.9,54.6-1.5,64.9l0,0.8l-0.4,0.7c-0.8,1.6-9.6,16-48.5,14.4c-41.5-1.7-45.8-20.7-45.9-21.5l-0.1-0.7
			c-0.2-17.1,0.5-65.3,1.1-97.6c-3.1,7.9-7.5,17.2-13.8,27.6c-23.9,39.8-49.1,56.4-50.2,57.1l-1.4,0.9l-1.5-0.4
			c-1.1-0.3-27.8-8.2-53.5-28.6c-26.1-20.8-30.1-39.2-30.2-40l-0.7-3.3l3.3-0.8c10.6-2.6,21.3-7.5,31.8-14.3
			c47.4-30.8,52.7-74.6,55-93.4l0.2-1.8c0.5-3.6,0.5-9.4,0.3-17.4l-0.2-5.4l5,2c0.5,0.2,56.5,21.8,155,20
			c117.4-2.3,159.2-25.1,159.6-25.3l5.2-3l0,6c0.1,16.6,4.5,49.6,33.3,84.5c15.8,19.2,34.3,34.2,55,44.7l2.1,1.1l-0.2,2.4
			c0,0.6-1.2,13.9-16.3,28.1c-14.9,14-52.6,21.4-54.2,21.8l-1.2,0.2l-1.1-0.5c-0.8-0.4-8-4.2-31.8-28.3c-7-7.1-12.8-15.8-17.6-24.8
			c1.4,10,2.3,21.8-0.7,46.4c17.3,6.1,35.4,10.4,47.7,13.1l3.1,0.7l-0.3,3.2c0,0.3-1,8.6-10,27.6c-9,19-23.2,32.5-23.8,33.1
			L567.1,577.4z M409.3,412.8l7.1,0.2l-0.1,15.3c0.3,18.3,2.4,51.7,13,67.7c18.5,28,59,52.9,105.8,64.9l30.1,8.7
			c3.7-3.8,14-15.1,20.8-29.6c5.4-11.3,7.7-18.5,8.7-22.2c-12-2.7-28-6.7-43.7-12.1l0,0l-4-1.3c-0.5-0.1-11.2-3.3-23.9-10.3
			c-10-5.1-18-10.7-23.6-16.4c-3.6-3.8-6.7-8.3-9.2-13.5c-11.8-19.8-6.3-50.6-6.1-51.9l7,1.2c0,0.3-4.2,27.1,5.5,47.6
			c6.1,10,16.1,19.1,29.8,26.8c5.4,2.7,11.6,5.5,18.5,8.1c3-26.1,1.4-36.8-0.1-47.2l-0.1-0.8c-1.5-10-4.7-23.6-7.2-33.2
			c-1.6-5.4-2.4-8.9-2.4-9l6.9-1.7c0,0,1,3.6,2.4,9c4.3,14.7,14.1,42,30.8,58.9c18.4,18.6,26.4,24.6,28.9,26.3
			c6.7-1.4,37.4-8.5,49.4-19.7c9.5-9,12.7-17.4,13.7-21.3c-20.6-10.8-39.1-26.1-54.9-45.3c-27.3-33.1-33.7-64.7-34.8-83.5
			c-14.3,6.2-60.2,21.9-157.8,23.8c-84.2,1.6-136.9-13.4-152.7-18.7c0.1,5.7-0.1,10.2-0.5,13.3l-0.2,1.8
			c-2.4,19.7-8.1,65.9-58.2,98.5c-10,6.5-20.2,11.3-30.3,14.2c2.3,5.7,8.9,18.6,26.7,32.7c21.1,16.8,43.4,24.8,49.4,26.8
			c5.4-3.9,26.7-20.6,46.6-53.8c19.6-32.6,20.4-53.8,20.4-54.7l3.5,0l1.3,0l2.2,0c0,0,0,0,0,0.1h0c0,0,0,0,0,0
			c-0.1,5.4-2,101.3-1.7,127.7c0.6,1.7,6.2,14.2,39.2,15.6c30.1,1.3,39.7-7.9,41.7-10.2c1.1-19.5,1.8-88.3,2-117.4
			C409,419.1,409.3,413,409.3,412.8z"/>
	</g>
	<path class="st8" d="M407.2,370.8c-91.9,0-144.7-20.2-145.2-20.4l-1.3-0.5l0.2-1.4c0,0,0.6-5,0.7-9.9c0.1-4.2-0.1-10-0.1-10
		l-0.1-2.7l2.5,1c0.5,0.2,56.8,22,155.6,20.1c117.7-2.3,160-25.3,160.4-25.6l2.6-1.5l0,3c0,0.1,0.1,6.3,0.5,9.9c0.4,3.7,1.2,9,1.2,9
		l0.2,1.2l-1.1,0.6c-1.8,1-45,24.8-163.8,27.1C415.4,370.8,411.3,370.8,407.2,370.8z M264.6,347.6c8.9,3.2,64.2,21.3,155,19.6
		c107.9-2.1,153.8-22.4,161.1-26.1c-0.3-1.8-0.7-5.2-1-7.8c-0.3-2.2-0.4-5.3-0.5-7.5c-10.7,5-55.5,22.7-159.5,24.7
		c-87.9,1.7-142.5-15.3-154.5-19.4c0.1,2.1,0.1,5.1,0,7.7C265.1,342.3,264.7,345.7,264.6,347.6z"/>
	<path class="st3" d="M419.6,15.9c0,0-3.1,7.9-8.5,18.2c-5.4,10.4-2.5-9.1-2.5-9.1s-1,5.7-7.9,17.5c-6.9,11.8-6.9,0-6.9,0
		s-1,4.4-7.9,10.4c-6.9,5.9-16.8,3.5-16.8,3.5s3,3.9-7.9,10.8c-10.8,6.9-19.7,10.3-34,19.7c-14.3,9.4-42.5,40-49.4,52.2
		c-12.5,22.2-12.5,52.7-12.5,52.7s10.5-38,31.2-59.6c20.8-21.6,36.4-26.9,57.9-36.1c21.5-9.2,37.6-9.3,65-11.2
		c27.5-1.9,56.5,6.6,64.1,9.3c7.6,2.7,38.8,15.1,50.9,26.4c12.1,11.3,23.1,23.4,29.7,37.2c8.3,17.3,12.1,33.6,12.1,33.6
		s-2.3-31.1-14.1-52.7c-11.8-21.7-22.6-28.1-24.1-31.1c-1.5-3-3.6-11.3-3.6-11.3s-4.5-1-7.1-1s-8.4-9.4-10.7-10.4
		c-2.3-1-18.3-4.9-17.9-8.4c0.3-3.5-4.1-8.4-4.1-8.4s1.5,5.9-1.5,6.4c-3,0.5-7.4-6.4-8.9-8.9c-1.5-2.5-18.5-9.4-18.4-11.8
		c0.1-2.5,0.8,6.9,0,7.9c-0.8,1-8.2-5.4-9.2-8.9c-1-3.5-5-7.9-6.2-9.9c-1.2-2-2.5,3.9-2.5,3.9s-5.1-2.5-5.6-7.4
		c-0.5-4.9-3.4,0.5-3.4,0.5s-3.9-6.4-3.9-8.4c0-2-5.2,6.4-5.2,6.4s-1.7-9.4-2.2-14.8c-0.5-5.4-5.1-17.2-5.1-17.2L419.6,15.9z"/>
	<path class="st9" d="M255.1,177.4c0,0,18.4,26.9,61.8,27c57.9,0.1,60.4-14,76.5-26.9c17.5-14,47.4-12.6,63.7,0
		c14.9,11.6,25.2,26.9,66,26.9c45.9,0,58.4-15.2,64.5-26.9c-1.6-36.4,0.4-24.2-2.7-48.8c-2.5-19.2-7.7-29.7-20.5-41.8
		c-16.2-15.3-75.1-31.6-139.6-33.7c-64.5-2.1-130.4,16.1-147.4,31.4c-14.7,13.3-14.7,16.8-19.6,41.4
		C253.9,146,255.1,177.4,255.1,177.4z"/>
	<path class="st10" d="M317.4,206.2C317.4,206.2,317.4,206.2,317.4,206.2h-0.5c-43.8-0.1-62.5-26.6-63.2-27.8l-0.3-0.4l0-0.5
		c-0.1-1.3-1.2-31.9,2.7-51.7l0.7-3.8c4.1-21.2,5-25.6,19.4-38.6c17.8-16,84.7-34,148.6-31.9c67.8,2.2,124.8,19.1,140.7,34.2
		c13.2,12.5,18.5,23.3,21,42.8c1.9,15.1,2,16.5,2,23.4c0,4.5,0.1,11.2,0.7,25.5l0,0.5l-0.2,0.4c-6.8,12.9-20.6,27.8-66.1,27.8
		c-35,0-47.9-11-60.3-21.6c-2.2-1.9-4.4-3.8-6.8-5.6c-7.9-6.1-19.2-9.6-31.2-9.6c-11.8,0-22.5,3.4-30.3,9.6
		c-2.7,2.2-5.1,4.5-7.4,6.7C375.9,196.2,365.4,206.2,317.4,206.2z M256.8,176.8c2.5,3.3,21,25.8,60,25.8h0.5
		c46.7,0,56.2-9.1,67.3-19.6c2.4-2.2,4.8-4.6,7.7-6.9c8.3-6.7,19.9-10.3,32.5-10.3c12.7,0,24.9,3.8,33.4,10.3
		c2.4,1.8,4.6,3.8,6.9,5.7c11.9,10.2,24.3,20.8,58,20.8c43.2,0,56.3-13.5,62.8-25.5c-0.6-14-0.7-20.7-0.7-25.1
		c-0.1-6.9-0.1-8.2-2-23c-2.4-18.6-7.4-28.9-20-40.7C548,74,490.8,57.2,424.7,55.1C361.6,53,295.8,70.4,278.6,86
		c-13.5,12.2-14.1,15.4-18.3,36.6l-0.7,3.8C256,144.5,256.7,172.6,256.8,176.8z"/>
	<g>
		<g>
			<path class="st11" d="M344.1,145.1c-35.1,0-44.2-22.5-44.6-23.4l3.3-1.3c0.3,0.9,8.7,21.2,41.3,21.2c32,0,45.6-21.3,45.7-21.5
				l3,1.9C392.2,122.9,378.1,145.1,344.1,145.1z"/>
			<path class="st11" d="M496.8,145.1c-35.2,0-44.2-22.5-44.6-23.4l3.3-1.3c0.3,0.9,8.7,21.2,41.3,21.2c32.1,0,45.6-21.3,45.7-21.5
				l3,1.9C544.9,122.9,530.9,145.1,496.8,145.1z"/>
		</g>
		
			<rect x="346.9" y="143.3" transform="matrix(0.9926 -0.1211 0.1211 0.9926 -15.8566 43.3477)" class="st11" width="3.5" height="17.7"/>
		
			<rect x="378.2" y="138.9" transform="matrix(0.8689 -0.4951 0.4951 0.8689 -22.3737 207.2523)" class="st11" width="3.5" height="13.9"/>
		
			<rect x="302.8" y="144.7" transform="matrix(0.4767 -0.879 0.879 0.4767 34.9439 351.7369)" class="st11" width="20.3" height="3.5"/>
		
			<rect x="496.1" y="143.3" transform="matrix(0.9926 -0.1212 0.1212 0.9926 -14.7654 61.4521)" class="st11" width="3.5" height="17.7"/>
		
			<rect x="461.2" y="144.1" transform="matrix(0.3571 -0.9341 0.9341 0.3571 164.4585 530.6577)" class="st11" width="13" height="3.5"/>
		
			<rect x="527.1" y="137.7" transform="matrix(0.8787 -0.4773 0.4773 0.8787 -5.8835 270.2284)" class="st11" width="3.5" height="18.1"/>
	</g>
</g>
</svg>
